<svg width="17" height="17" viewBox="0 0 17 17" fill="none" xmlns="http://www.w3.org/2000/svg">
<path d="M16.0847 3.40253V12.6822C16.0847 14.8763 14.8763 16.0847 12.6822 16.0847H3.40253C1.20841 16.0847 0 14.8763 0 12.6822V3.40253C0 1.20841 1.20841 0 3.40253 0H12.6822C14.8763 0 16.0847 1.20841 16.0847 3.40253ZM14.8474 3.40253C14.8474 1.8848 14.1999 1.23728 12.6822 1.23728H3.40253C1.8848 1.23728 1.23728 1.8848 1.23728 3.40253V12.6822C1.23728 14.1999 1.8848 14.8474 3.40253 14.8474H12.6822C14.1999 14.8474 14.8474 14.1999 14.8474 12.6822V3.40253Z" fill="#60636A"/>
</svg>
