<svg width="21" height="21" viewBox="0 0 21 21" fill="none" xmlns="http://www.w3.org/2000/svg">
<path d="M15.7854 18.3591H8.49373C6.67957 18.3591 5.68123 17.3608 5.68123 15.5466V8.25496C5.68123 6.4408 6.67957 5.44246 8.49373 5.44246H15.7854C17.5996 5.44246 18.5979 6.4408 18.5979 8.25496V15.5466C18.5979 17.3608 17.5996 18.3591 15.7854 18.3591ZM8.49373 6.69246C7.38373 6.69246 6.93123 7.14496 6.93123 8.25496V15.5466C6.93123 16.6566 7.38373 17.1091 8.49373 17.1091H15.7854C16.8954 17.1091 17.3479 16.6566 17.3479 15.5466V8.25496C17.3479 7.14496 16.8954 6.69246 15.7854 6.69246H8.49373ZM3.5979 12.7341V4.92163C3.5979 3.81163 4.0504 3.35913 5.1604 3.35913H12.9729C13.3179 3.35913 13.5979 3.07913 13.5979 2.73413C13.5979 2.38913 13.3179 2.10913 12.9729 2.10913H5.1604C3.34623 2.10913 2.3479 3.10746 2.3479 4.92163V12.7341C2.3479 13.0791 2.6279 13.3591 2.9729 13.3591C3.3179 13.3591 3.5979 13.0791 3.5979 12.7341Z" fill="#25314C"/>
</svg>
