<svg width="21" height="21" viewBox="0 0 21 21" fill="none" xmlns="http://www.w3.org/2000/svg">
<path d="M16.7549 5.86421H3.35099C2.88772 5.86421 2.51324 5.4889 2.51324 5.02647C2.51324 4.56403 2.88772 4.18872 3.35099 4.18872H16.7549C17.2182 4.18872 17.5927 4.56403 17.5927 5.02647C17.5927 5.4889 17.2182 5.86421 16.7549 5.86421ZM15.0794 10.0529C15.0794 9.5905 14.7049 9.21519 14.2417 9.21519H5.86422C5.40095 9.21519 5.02648 9.5905 5.02648 10.0529C5.02648 10.5154 5.40095 10.8907 5.86422 10.8907H14.2417C14.7049 10.8907 15.0794 10.5154 15.0794 10.0529ZM12.5662 15.0794C12.5662 14.617 12.1917 14.2417 11.7284 14.2417H8.37746C7.91419 14.2417 7.53971 14.617 7.53971 15.0794C7.53971 15.5418 7.91419 15.9171 8.37746 15.9171H11.7284C12.1917 15.9171 12.5662 15.5418 12.5662 15.0794Z" fill="#60636A"/>
</svg>
