<svg width="11" height="13" viewBox="0 0 11 13" fill="none" xmlns="http://www.w3.org/2000/svg">
<path id="Vector" d="M8.30176 0.460449L8.50977 0.471191C9.5315 0.574934 10.2904 1.41412 10.291 2.46729V12.1782L10.2881 12.2739C10.2805 12.3574 10.2567 12.4469 10.1875 12.5229L10.1406 12.5669C10.0049 12.6739 9.83579 12.668 9.68945 12.5767L9.62891 12.5327L7.77539 10.9907L5.37695 8.98779L5.34668 8.96631L5.31641 8.98779L1.15723 12.4575C1.10142 12.5041 1.02843 12.5708 0.946289 12.6099C0.877929 12.6423 0.801152 12.6574 0.716797 12.6401L0.629883 12.6118C0.506292 12.556 0.445035 12.4652 0.418945 12.3647C0.395564 12.2745 0.400391 12.1719 0.400391 12.0981C0.40039 8.90136 0.398552 5.70431 0.40332 2.50732L0.408203 2.34717C0.430437 1.98032 0.528736 1.65461 0.706055 1.37549C0.908718 1.05662 1.21041 0.804305 1.60449 0.619629L1.7959 0.544434C1.98949 0.482544 2.19027 0.458521 2.39258 0.458496L8.30176 0.460449ZM2.45508 1.22217C2.39778 1.22217 2.33925 1.22637 2.28125 1.23291L2.1084 1.26123C1.61717 1.36615 1.171 1.84782 1.17285 2.49268L1.17578 11.4399C2.45254 10.3761 3.73037 9.31287 5.00684 8.24854L5.09082 8.18213C5.1742 8.12159 5.2559 8.08106 5.3457 8.08057C5.46604 8.08007 5.57207 8.15198 5.68555 8.24658L9.23438 11.2056L9.5166 11.438C9.51676 8.45335 9.51186 5.4681 9.52344 2.48291L9.51758 2.36279C9.4622 1.76394 8.97997 1.21716 8.24414 1.21924L2.45508 1.22217Z" fill="#60636A" stroke="#60636A" stroke-width="0.2"/>
</svg>
