<svg width="17" height="17" viewBox="0 0 17 17" fill="none" xmlns="http://www.w3.org/2000/svg">
<g id="flag" opacity="0.8">
<path id="flag_2" d="M10.8094 6.23283L13.2621 2.86011C13.3728 2.70811 13.3888 2.50677 13.3034 2.33944C13.2181 2.1721 13.0461 2.06616 12.8581 2.06616H5.52478C3.91278 2.06616 3.02478 2.95416 3.02478 4.56616V14.5382C3.02478 14.8142 3.24878 15.0382 3.52478 15.0382C3.80078 15.0382 4.02478 14.8142 4.02478 14.5382V10.3995H12.8581C13.0461 10.3995 13.2188 10.2942 13.3034 10.1262C13.3881 9.95822 13.3728 9.75755 13.2621 9.60555L10.8094 6.23283ZM4.02478 9.3995V4.56616C4.02478 3.51483 4.47345 3.06616 5.52478 3.06616H11.8761L9.78678 5.93888C9.65945 6.11422 9.65945 6.35144 9.78678 6.52677L11.8761 9.3995H4.02478Z" fill="#60636A"/>
</g>
</svg>
