<svg width="33" height="33" viewBox="0 0 33 33" fill="none" xmlns="http://www.w3.org/2000/svg">
<rect x="0.765625" y="1.41333" width="31" height="31" rx="4.98625" stroke="#EFEFFA"/>
<path d="M20.2656 26.6633H12.2656C9.84763 26.6633 8.51562 25.3313 8.51562 22.9133V10.9133C8.51562 8.49533 9.84763 7.16333 12.2656 7.16333H20.2656C22.6836 7.16333 24.0156 8.49533 24.0156 10.9133V22.9133C24.0156 25.3313 22.6836 26.6633 20.2656 26.6633ZM12.2656 8.66333C10.6886 8.66333 10.0156 9.33633 10.0156 10.9133V22.9133C10.0156 24.4903 10.6886 25.1633 12.2656 25.1633H20.2656C21.8426 25.1633 22.5156 24.4903 22.5156 22.9133V10.9133C22.5156 9.33633 21.8426 8.66333 20.2656 8.66333H12.2656ZM18.5156 10.9133C18.5156 10.4993 18.1796 10.1633 17.7656 10.1633H14.7656C14.3516 10.1633 14.0156 10.4993 14.0156 10.9133C14.0156 11.3273 14.3516 11.6633 14.7656 11.6633H17.7656C18.1796 11.6633 18.5156 11.3273 18.5156 10.9133ZM16.2656 21.9133C15.7136 21.9133 15.2656 22.3613 15.2656 22.9133C15.2656 23.4653 15.7136 23.9133 16.2656 23.9133C16.8176 23.9133 17.2656 23.4653 17.2656 22.9133C17.2656 22.3613 16.8176 21.9133 16.2656 21.9133Z" fill="#7F4DD0"/>
</svg>
