<svg width="21" height="21" viewBox="0 0 21 21" fill="none" xmlns="http://www.w3.org/2000/svg">
<path d="M6.25783 4.58215C6.50321 4.33692 6.90118 4.33683 7.1465 4.58215L9.65919 7.09582C9.90456 7.34119 9.90456 7.73912 9.65919 7.98449C9.4138 8.22952 9.01578 8.22975 8.77052 7.98449L7.33009 6.54309V15.0792C7.33009 15.4262 7.04908 15.708 6.70216 15.7081C6.35516 15.7081 6.07326 15.4262 6.07326 15.0792V6.54309L4.63283 7.98449C4.38745 8.22956 3.98943 8.22972 3.74415 7.98449C3.49888 7.73922 3.49908 7.34121 3.74415 7.09582L6.25783 4.58215ZM13.4043 4.39855C13.7511 4.39876 14.0322 4.67965 14.0322 5.02648V13.5626L15.4727 12.1222C15.718 11.8768 16.116 11.8768 16.3613 12.1222C16.6067 12.3676 16.6067 12.7655 16.3613 13.0109L13.8486 15.5236C13.6033 15.7689 13.2053 15.7689 12.96 15.5236L10.4463 13.0109C10.201 12.7655 10.2011 12.3676 10.4463 12.1222C10.6917 11.8768 11.0896 11.8768 11.335 12.1222L12.7754 13.5626V5.02648C12.7755 4.67953 13.0573 4.39855 13.4043 4.39855Z" fill="#60636A"/>
</svg>
