<svg width="18" height="18" viewBox="0 0 18 18" fill="none" xmlns="http://www.w3.org/2000/svg">
<path d="M3.84888 11.3669L3.94165 11.3738C4.03055 11.3865 4.11024 11.4187 4.1731 11.4705C4.23732 11.5235 4.27967 11.5937 4.29614 11.6746L4.30396 11.7595C4.30218 11.8705 4.25955 11.9677 4.17407 12.0349C4.11224 12.0834 4.03408 12.1117 3.94653 12.1228L3.85571 12.1287L1.8147 12.1296C1.76543 12.1297 1.73088 12.1327 1.7063 12.1355C1.7133 12.1573 1.72419 12.1872 1.74243 12.2283L1.96509 12.698C3.12727 14.9865 4.99131 16.4135 7.57935 16.9138L7.92993 16.9734C11.5591 17.4999 15.1327 15.3307 16.3674 11.8005L16.4084 11.696C16.4521 11.5971 16.5045 11.5172 16.5715 11.4646C16.6696 11.3879 16.783 11.3809 16.8997 11.4177L16.9836 11.4539C17.0611 11.4982 17.1163 11.5666 17.1399 11.6599C17.1616 11.7459 17.1537 11.8444 17.1243 11.9519L17.0881 12.0632C15.9485 15.0673 13.825 16.9641 10.7239 17.6257L10.4211 17.6863C7.99075 18.1328 5.77795 17.5539 3.83423 16.113L3.44946 15.8132C2.43133 14.9836 1.66994 13.9504 1.13403 12.7576C1.13406 13.4463 1.13475 14.1351 1.13403 14.824L1.12817 14.9207C1.11564 15.0137 1.08403 15.0971 1.03345 15.1628C0.981187 15.2306 0.909879 15.2763 0.827393 15.2927L0.741455 15.2996C0.627652 15.2944 0.532424 15.2385 0.468018 15.1501C0.405005 15.0635 0.373503 14.9484 0.373291 14.823V11.8269C0.373322 11.6878 0.395815 11.5632 0.479736 11.4773C0.564335 11.3909 0.687671 11.3669 0.825439 11.3669H3.84888Z" fill="black" stroke="#25314C" stroke-width="0.2"/>
<path d="M7.61621 0.760742C10.5417 0.277074 13.0826 1.19425 15.1953 3.30762L15.457 3.58301C16.0212 4.21078 16.4621 4.92639 16.8086 5.69824V3.73438C16.8086 3.6751 16.8066 3.60832 16.8105 3.54297L16.8213 3.46875C16.8588 3.30037 16.987 3.17296 17.1641 3.16113L17.2383 3.16504C17.4088 3.19165 17.5539 3.34545 17.5664 3.5293L17.5732 3.76758C17.5731 3.84628 17.5713 3.92382 17.5713 3.99805V6.62402C17.5713 6.76707 17.5495 6.89425 17.4639 6.98145C17.3992 7.04718 17.3117 7.07645 17.2119 7.08691L17.1084 7.0918L14.1035 7.09277C14.0215 7.09276 13.9321 7.08383 13.8525 7.0459C13.7892 7.01567 13.7365 6.96922 13.6992 6.90332L13.667 6.83105C13.6233 6.70166 13.6411 6.57254 13.7207 6.47559C13.7988 6.38065 13.9237 6.33171 14.0654 6.33105L16.0869 6.32812H16.0879L16.2275 6.31641L16.1758 6.16699C15.123 3.84056 13.4001 2.31391 10.9893 1.68359L10.498 1.56934C8.14258 1.08931 6.02146 1.63123 4.16211 3.07324L3.79395 3.37305C2.88853 4.14801 2.22212 5.09269 1.76465 6.17676L1.58203 6.65039L1.51172 6.83398C1.46631 6.92521 1.39672 6.99495 1.31055 7.03223C1.24547 7.06031 1.17425 7.06837 1.10352 7.05664L1.0332 7.03809C0.838584 6.96902 0.731567 6.76271 0.804688 6.54883L0.944336 6.1543C0.993785 6.02245 1.04763 5.891 1.10742 5.7627L1.35059 5.27246C2.61715 2.87775 4.60864 1.34162 7.33203 0.811523L7.61621 0.760742Z" fill="black" stroke="#25314C" stroke-width="0.2"/>
</svg>
