<svg width="19" height="19" viewBox="0 0 19 19" fill="none" xmlns="http://www.w3.org/2000/svg">
<g id="search">
<path id="search_2" d="M16.9433 15.6552L14.0004 12.7745C14.9841 11.6322 15.5794 10.16 15.5794 8.55273C15.5794 4.93398 12.5722 1.99023 8.87541 1.99023C5.17862 1.99023 2.17139 4.93398 2.17139 8.55273C2.17139 12.1715 5.17862 15.1152 8.87541 15.1152C10.5173 15.1152 12.0213 14.5325 13.1882 13.5695L16.1311 16.4502C16.2429 16.5597 16.3901 16.6152 16.5372 16.6152C16.6843 16.6152 16.8314 16.5605 16.9433 16.4502C17.1677 16.2312 17.1677 15.875 16.9433 15.6552ZM3.32065 8.55273C3.32065 5.55423 5.81225 3.11523 8.87541 3.11523C11.9386 3.11523 14.4302 5.55423 14.4302 8.55273C14.4302 11.5512 11.9386 13.9902 8.87541 13.9902C5.81225 13.9902 3.32065 11.5512 3.32065 8.55273Z" fill="#B1B1B7"/>
</g>
</svg>
