<svg width="21" height="21" viewBox="0 0 21 21" fill="none" xmlns="http://www.w3.org/2000/svg">
<path d="M18.0909 17.1487L14.8731 13.9309C15.9487 12.6551 16.5997 11.0106 16.5997 9.21528C16.5997 5.17316 13.3115 1.88501 9.26939 1.88501C5.22727 1.88501 1.93912 5.17316 1.93912 9.21528C1.93912 13.2574 5.22727 16.5455 9.26939 16.5455C11.0647 16.5455 12.7092 15.8946 13.9851 14.8189L17.2028 18.0367C17.3251 18.159 17.486 18.221 17.6468 18.221C17.8077 18.221 17.9686 18.1599 18.0909 18.0367C18.3363 17.7921 18.3363 17.3942 18.0909 17.1487ZM3.19573 9.21528C3.19573 5.86597 5.92008 3.14163 9.26939 3.14163C12.6187 3.14163 15.343 5.86597 15.343 9.21528C15.343 12.5646 12.6187 15.2889 9.26939 15.2889C5.92008 15.2889 3.19573 12.5646 3.19573 9.21528Z" fill="#60636A"/>
</svg>
