<svg width="23" height="23" viewBox="0 0 23 23" fill="none" xmlns="http://www.w3.org/2000/svg">
<path d="M14.8838 9.87099L10.778 7.35933C10.25 7.03483 9.61212 7.02394 9.07404 7.32644C8.53504 7.62802 8.2141 8.17607 8.2141 8.79207V13.6762C8.2141 14.2922 8.53595 14.8402 9.07404 15.1418C9.33345 15.2876 9.61661 15.36 9.89895 15.36C10.2024 15.36 10.5048 15.2758 10.778 15.1089L14.8838 12.5973C15.3623 12.3039 15.6493 11.7951 15.6493 11.2341C15.6493 10.6731 15.3623 10.1643 14.8838 9.87099ZM14.4053 11.8153L10.2995 14.327C10.0575 14.4737 9.7679 14.4799 9.5204 14.3415C9.27473 14.204 9.12898 13.9558 9.12898 13.6753V8.79118C9.12898 8.5116 9.27473 8.26222 9.5204 8.12472C9.63956 8.0578 9.76882 8.0249 9.89716 8.0249C10.0356 8.0249 10.174 8.0634 10.2986 8.13949L14.4044 10.6511C14.6125 10.7776 14.7307 10.9894 14.7307 11.2323C14.7307 11.4753 14.6134 11.6888 14.4053 11.8153ZM11.4729 1.60913C6.1654 1.60913 1.8479 5.92663 1.8479 11.2341C1.8479 16.5416 6.1654 20.8591 11.4729 20.8591C16.7804 20.8591 21.0979 16.5416 21.0979 11.2341C21.0979 5.92663 16.7804 1.60913 11.4729 1.60913ZM11.4729 19.9425C6.6714 19.9425 2.76457 16.0356 2.76457 11.2341C2.76457 6.43263 6.6714 2.5258 11.4729 2.5258C16.2744 2.5258 20.1812 6.43263 20.1812 11.2341C20.1812 16.0356 16.2744 19.9425 11.4729 19.9425Z" fill="#25314C"/>
</svg>
