<svg width="23" height="23" viewBox="0 0 23 23" fill="none" xmlns="http://www.w3.org/2000/svg">
<path d="M11.4729 1.60913C6.1654 1.60913 1.8479 5.92663 1.8479 11.2341C1.8479 16.5416 6.1654 20.8591 11.4729 20.8591C16.7804 20.8591 21.0979 16.5416 21.0979 11.2341C21.0979 5.92663 16.7804 1.60913 11.4729 1.60913ZM11.4729 19.9425C6.6714 19.9425 2.76457 16.0356 2.76457 11.2341C2.76457 6.43263 6.6714 2.5258 11.4729 2.5258C16.2744 2.5258 20.1812 6.43263 20.1812 11.2341C20.1812 16.0356 16.2744 19.9425 11.4729 19.9425ZM9.70189 7.10913H8.65968C7.99143 7.10913 7.57617 7.51887 7.57617 8.17887V14.2903C7.57617 14.9503 7.99143 15.36 8.65968 15.36H9.70189C10.3701 15.36 10.7854 14.9503 10.7854 14.2903V8.17887C10.7854 7.51887 10.3701 7.10913 9.70189 7.10913ZM9.86873 14.2894C9.86873 14.3838 9.85036 14.4178 9.85128 14.4187C9.84669 14.4206 9.80914 14.4416 9.70189 14.4416H8.65968C8.55426 14.4416 8.51571 14.4214 8.51388 14.4214C8.51113 14.4178 8.49373 14.3838 8.49373 14.2885V8.17708C8.49373 8.08267 8.51211 8.04865 8.51119 8.04773C8.51577 8.0459 8.55332 8.0249 8.66057 8.0249H9.70279C9.80821 8.0249 9.84676 8.04504 9.84859 8.04504C9.85134 8.04871 9.86873 8.08265 9.86873 8.17798V14.2894ZM14.2852 7.10913H13.243C12.5748 7.10913 12.1595 7.51887 12.1595 8.17887V14.2903C12.1595 14.9503 12.5748 15.36 13.243 15.36H14.2852C14.9535 15.36 15.3687 14.9503 15.3687 14.2903V8.17887C15.3687 7.51887 14.9535 7.10913 14.2852 7.10913ZM14.4521 14.2894C14.4521 14.3838 14.4337 14.4178 14.4346 14.4187C14.43 14.4206 14.3925 14.4416 14.2852 14.4416H13.243C13.1376 14.4416 13.099 14.4214 13.0972 14.4214C13.0945 14.4178 13.0771 14.3838 13.0771 14.2885V8.17708C13.0771 8.08267 13.0954 8.04865 13.0945 8.04773C13.0991 8.0459 13.1367 8.0249 13.2439 8.0249H14.2861C14.3915 8.0249 14.4301 8.04504 14.4319 8.04504C14.4347 8.04871 14.4521 8.08265 14.4521 8.17798V14.2894Z" fill="#25314C"/>
</svg>
