<svg width="71" height="69" viewBox="0 0 71 69" fill="none" xmlns="http://www.w3.org/2000/svg">
<rect x="0.5" y="0.5" width="70" height="68" rx="11.5" stroke="#D4EDFF"/>
<g clip-path="url(#clip0_231_1359)">
<path d="M8 57.1071V40.2938C8.48125 38.3596 9.90969 36.8791 11.9113 36.5572L28.2096 36.5419C30.34 36.7718 32.0167 38.4362 32.3079 40.5482C32.0198 45.7961 32.6911 51.4546 32.3141 56.6565C32.1547 58.8482 30.3799 60.6414 28.2127 60.859L11.8286 60.8284C9.86678 60.4789 8.47819 59.0106 8.00307 57.1071H8ZM12.3282 39.6103C11.6355 39.7605 11.1052 40.3367 11.0377 41.054C11.3504 45.9309 10.6208 51.332 11.0347 56.1476C11.1266 57.2174 11.6355 57.7263 12.7053 57.8182C17.4596 58.2259 22.7871 57.5025 27.5996 57.8182C28.6694 57.7263 29.1783 57.2174 29.2702 56.1476C29.681 51.3596 28.9514 45.9984 29.2702 41.1521C29.2549 40.3122 28.5437 39.598 27.7008 39.5827L12.3252 39.6103H12.3282Z" fill="url(#paint0_linear_231_1359)"/>
<rect x="10.6531" y="38.7143" width="19.102" height="20.1633" fill="url(#paint1_linear_231_1359)"/>
<path d="M27.7488 9C29.6067 9.48324 31.0289 10.9176 31.3381 12.9275L31.3469 29.3914C31.0937 31.4598 29.4772 33.1435 27.5044 33.4082H11.8426C9.87859 33.125 8.46818 31.6199 8 29.6469V12.7613C8.4564 10.8314 9.75492 9.474 11.5982 9H27.7488ZM12.1576 12.0749C11.4922 12.2257 10.9828 12.8043 10.918 13.5246C10.9622 18.754 10.8297 24.0019 10.9857 29.2191C11.2036 29.9178 11.7277 30.2964 12.4226 30.361C17.0396 30.7857 22.2484 30.0316 26.9272 30.361C27.7988 30.3056 28.3583 29.6838 28.4348 28.7851C28.8412 23.9588 28.1198 18.514 28.4348 13.6231C28.4201 12.7797 27.737 12.0626 26.9272 12.0472L12.1576 12.0749Z" fill="url(#paint2_linear_231_1359)"/>
<rect x="10.1226" y="11.1224" width="19.102" height="20.1633" fill="url(#paint3_linear_231_1359)"/>
<path d="M56.1069 9C58.0412 9.48125 59.5217 10.9097 59.8436 12.9113L59.8589 29.2096C59.629 31.34 57.9645 33.0167 55.8525 33.3079C50.6047 33.0198 44.9461 33.6911 39.7443 33.3141C37.5403 33.1547 35.7778 31.386 35.5417 29.2127L35.5724 12.8286C35.9218 10.8668 37.3901 9.47819 39.2937 9.00307H56.1069V9ZM39.8761 12.0622C39.1833 12.2125 38.653 12.7887 38.5856 13.506C38.6316 18.714 38.4936 23.9403 38.6561 29.1361C38.8829 29.8319 39.4286 30.2089 40.152 30.2733C44.9584 30.6963 50.3809 29.9453 55.2517 30.2733C56.1591 30.2181 56.7415 29.5989 56.8212 28.7038C57.2442 23.8974 56.4932 18.4749 56.8212 13.6041C56.8058 12.7642 56.0947 12.05 55.2517 12.0347L39.8761 12.0622Z" fill="url(#paint4_linear_231_1359)"/>
<rect x="38.2449" y="11.1224" width="19.102" height="20.1633" fill="url(#paint5_linear_231_1359)"/>
<path d="M39.3735 36.5742C39.3735 36.575 39.3741 36.5756 39.3749 36.5756L55.8557 36.5511C57.8057 36.8206 59.3559 38.2598 59.7837 40.1534C59.8429 40.4158 59.8465 40.6863 59.8322 40.9548C59.5585 46.0812 60.2981 51.725 59.862 56.7576C59.692 58.7198 58.1218 60.3922 56.2231 60.7946C55.9807 60.846 55.7315 60.8473 55.484 60.8339C50.3491 60.5554 44.6924 61.299 39.6494 60.859C37.5527 60.6781 35.8177 58.9187 35.551 56.8526L35.56 40.7781C35.5602 40.5639 35.574 40.3491 35.6225 40.1404C36.0466 38.3131 37.5048 36.9069 39.3718 36.5728C39.3727 36.5727 39.3735 36.5733 39.3735 36.5742ZM39.8731 39.6102C39.8735 39.6102 39.8736 39.6108 39.8732 39.6109C39.1875 39.7609 38.6616 40.3285 38.5874 41.0366C38.5862 41.0482 38.5861 41.0598 38.5868 41.0713C38.8966 45.9437 38.1693 51.3377 38.5826 56.1476C38.6746 57.2174 39.1834 57.7262 40.2532 57.8182C44.9082 58.2174 50.1127 57.5322 54.8453 57.7998C55.0468 57.8112 55.2497 57.815 55.4482 57.7786C56.3138 57.6203 56.7353 57.1118 56.8182 56.1476C57.2289 51.3596 56.4994 45.9984 56.8182 41.1521C56.8029 40.3122 56.0917 39.598 55.2487 39.5827L39.8731 39.6102Z" fill="#DECEF6"/>
<path d="M38 42C38 39.7909 39.7909 38 42 38H53C55.2091 38 57 39.7909 57 42V55C57 57.2091 55.2091 59 53 59H42C39.7909 59 38 57.2091 38 55V42Z" fill="#DECEF6"/>
<path d="M24.381 18.1408C25.8217 17.9078 26.6585 19.2167 26.0117 20.4827L19.4121 27.0516C18.8604 27.3275 18.2504 27.303 17.7262 26.975C16.9875 25.9543 14.7804 24.4676 14.2563 23.456C13.4807 21.954 15.1115 20.5072 16.5001 21.4145C16.8802 21.6628 18.4465 23.5173 18.6672 23.4775L23.6913 18.4688C23.8691 18.3063 24.1419 18.1806 24.3779 18.1408H24.381Z" fill="white"/>
<path d="M51.8233 45.6841C51.8242 45.6851 51.8256 45.6855 51.827 45.6852C53.0264 45.4369 53.9096 46.3081 53.7811 47.3526C53.7294 47.7726 53.4418 48.1134 53.1441 48.4141L47.2452 54.3728C46.7119 54.897 45.8934 54.9276 45.2742 54.5138C44.7654 54.1735 42.3836 51.7642 41.9729 51.2308C40.9889 49.9526 42.071 48.328 43.6496 48.7449C44.0154 48.8411 44.7109 49.5849 45.2912 50.1963C45.8517 50.7869 46.5242 50.7113 47.1009 50.1365L51.2393 46.0106C51.3982 45.8823 51.6179 45.7236 51.8196 45.683C51.821 45.6828 51.8223 45.6832 51.8233 45.6841Z" fill="#A171EE"/>
</g>
<defs>
<linearGradient id="paint0_linear_231_1359" x1="20.2161" y1="36.5419" x2="20.2161" y2="60.859" gradientUnits="userSpaceOnUse">
<stop stop-color="#E4F3FF"/>
<stop offset="1" stop-color="#B4DFFF"/>
</linearGradient>
<linearGradient id="paint1_linear_231_1359" x1="20.2041" y1="38.7143" x2="20.2041" y2="58.8776" gradientUnits="userSpaceOnUse">
<stop stop-color="#E4F3FF"/>
<stop offset="1" stop-color="#B4DFFF"/>
</linearGradient>
<linearGradient id="paint2_linear_231_1359" x1="19.6735" y1="9" x2="19.6735" y2="33.4082" gradientUnits="userSpaceOnUse">
<stop stop-color="#02BDFF"/>
<stop offset="1" stop-color="#2395FF"/>
</linearGradient>
<linearGradient id="paint3_linear_231_1359" x1="19.6736" y1="11.1224" x2="19.6736" y2="31.2857" gradientUnits="userSpaceOnUse">
<stop stop-color="#02BDFF"/>
<stop offset="1" stop-color="#2395FF"/>
</linearGradient>
<linearGradient id="paint4_linear_231_1359" x1="47.7003" y1="9" x2="47.7003" y2="33.4323" gradientUnits="userSpaceOnUse">
<stop stop-color="#E4F3FF"/>
<stop offset="1" stop-color="#B4DFFF"/>
</linearGradient>
<linearGradient id="paint5_linear_231_1359" x1="47.7959" y1="11.1224" x2="47.7959" y2="31.2857" gradientUnits="userSpaceOnUse">
<stop stop-color="#E4F3FF"/>
<stop offset="1" stop-color="#B4DFFF"/>
</linearGradient>
<clipPath id="clip0_231_1359">
<rect width="52" height="52" fill="white" transform="translate(8 9)"/>
</clipPath>
</defs>
</svg>
